# Blender 4.1.1
# www.blender.org
mtllib float_R_arm_E.mtl
o 立方体.002
v -0.856860 -0.958522 0.186734
v -0.237035 0.213005 0.100454
v -0.856860 -0.958522 -0.186734
v -0.237035 0.213005 -0.100454
v -0.629622 -1.030305 0.186734
v -0.071954 0.160857 0.100454
v -0.629622 -1.030305 -0.186734
v -0.071954 0.160857 -0.100454
v -0.596401 -0.351701 0.210253
v -0.596401 -0.351701 -0.210253
v -0.296654 -0.446390 -0.210253
v -0.296654 -0.446390 0.210253
v -0.409724 -0.069347 0.160815
v -0.409724 -0.069347 -0.160815
v -0.189394 -0.138948 -0.160815
v -0.189394 -0.138948 0.160815
v -0.754306 -0.643144 -0.240252
v -0.432685 -0.744742 -0.240252
v -0.432685 -0.744742 0.240252
v -0.754306 -0.643144 0.240252
v -0.751679 -1.011345 -0.242530
v -0.145357 0.205265 -0.137262
v -0.751679 -1.011345 0.242530
v -0.145357 0.205265 0.137262
v -0.446527 -0.399045 0.265187
v -0.446527 -0.399045 -0.265187
v -0.299559 -0.104147 0.240918
v -0.299559 -0.104147 -0.240918
v -0.593496 -0.693943 -0.281556
v -0.593496 -0.693943 0.281556
v -0.811191 -0.984349 -0.226986
v -0.175817 0.207149 0.128525
v -0.532461 -0.371900 0.249835
v -0.355550 -0.086461 0.226986
v -0.701735 -0.659751 0.268297
v -0.175817 0.207149 -0.128525
v -0.811191 -0.984349 0.226986
v -0.532461 -0.371900 -0.249835
v -0.355550 -0.086461 -0.226986
v -0.701735 -0.659751 -0.268297
v -0.121561 0.190011 -0.128525
v -0.685108 -1.024177 0.226986
v -0.360594 -0.426191 -0.249835
v -0.243568 -0.121834 -0.226986
v -0.485256 -0.728135 -0.268297
v -0.685108 -1.024177 -0.226986
v -0.121561 0.190011 0.128525
v -0.360594 -0.426191 0.249835
v -0.243568 -0.121834 0.226986
v -0.485256 -0.728135 0.268297
v -0.906400 -0.970832 -0.002281
v -0.237936 0.244395 -0.002281
v -0.604160 -1.066308 -0.002281
v -0.044265 0.183216 -0.002281
v -0.243259 -0.463256 -0.002281
v -0.649796 -0.334834 -0.002281
v -0.146019 -0.152650 -0.002281
v -0.453099 -0.055645 -0.002281
v -0.818147 -0.622978 -0.002281
v -0.368844 -0.764909 -0.002281
v -0.129260 0.237565 -0.002281
v -0.791205 -1.090655 -0.002281
v -0.848932 -1.040179 -0.002281
v -0.173692 0.242869 -0.002281
v -0.092347 0.217173 -0.002281
v -0.705713 -1.085420 -0.002281
v -0.236336 0.234222 -0.037233
v -0.606673 -1.053383 -0.101298
v -0.630211 -0.341021 -0.128547
v -0.434962 -0.061375 -0.083924
v -0.788964 -0.632196 -0.165688
v -0.893441 -0.962796 -0.101298
v -0.054191 0.176683 -0.037233
v -0.262843 -0.457070 -0.128547
v -0.164157 -0.146920 -0.083924
v -0.398027 -0.755690 -0.165688
v -0.137189 0.221655 -0.071486
v -0.831822 -1.172155 -0.093993
v -0.837933 -1.018109 -0.114634
v -0.172488 0.231476 -0.060444
v -0.103034 0.209536 -0.060444
v -0.694714 -1.063351 -0.114634
v -0.893354 -0.963005 0.103671
v -0.053110 0.179060 0.034039
v -0.265116 -0.456352 0.136777
v -0.160142 -0.148188 0.075164
v -0.394674 -0.756750 0.164085
v -0.136626 0.222785 0.062432
v -0.832322 -1.173158 0.106231
v -0.841362 -1.024990 0.112353
v -0.174631 0.228191 0.048910
v -0.104303 0.205976 0.048910
v -0.698143 -1.070231 0.112353
v -0.235076 0.236542 0.034039
v -0.606916 -1.053489 0.103671
v -0.627939 -0.341739 0.136777
v -0.438976 -0.060107 0.075164
v -0.792317 -0.631137 0.164085
vn -0.7793 0.5434 -0.3121
vn 0.7430 -0.1602 -0.6498
vn 0.8977 -0.2837 0.3372
vn -0.6016 0.5010 0.6221
vn 0.1543 -0.9227 0.3532
vn -0.0245 0.9666 0.2551
vn -0.3759 0.2941 0.8788
vn 0.8233 -0.3288 0.4627
vn 0.4402 -0.1111 -0.8910
vn -0.7752 0.4641 -0.4285
vn -0.3871 0.4013 0.8301
vn 0.8796 -0.2409 0.4102
vn 0.5161 -0.0425 -0.8555
vn -0.7401 0.5556 -0.3789
vn -0.9022 0.2119 -0.3757
vn 0.4953 -0.4390 -0.7496
vn 0.7218 -0.5899 0.3620
vn -0.6212 0.1107 0.7758
vn 0.1838 -0.2097 0.9603
vn -0.2503 0.0057 -0.9682
vn -0.1256 0.1563 -0.9797
vn 0.1776 0.0056 0.9841
vn -0.0853 0.1137 -0.9898
vn 0.1245 0.0093 0.9922
vn 0.5318 0.8007 0.2758
vn -0.4633 -0.7898 0.4019
vn 0.2913 0.1825 0.9391
vn -0.1102 0.3760 -0.9201
vn -0.6016 0.5010 -0.6221
vn -0.7399 -0.5708 0.3559
vn -0.3759 0.2941 -0.8788
vn -0.3871 0.4013 -0.8301
vn -0.6212 0.1107 -0.7758
vn -0.2503 0.0057 0.9682
vn -0.1256 0.1563 0.9797
vn -0.0853 0.1137 0.9898
vn -0.0050 0.9738 0.2274
vn -0.1102 0.3760 0.9201
vn 0.7430 -0.1602 0.6498
vn 0.5139 0.7790 0.3593
vn 0.4402 -0.1111 0.8910
vn 0.5161 -0.0425 0.8555
vn 0.4953 -0.4390 0.7496
vn 0.1838 -0.2097 -0.9603
vn 0.1776 0.0056 -0.9841
vn 0.1245 0.0093 -0.9922
vn 0.5050 -0.6893 0.5195
vn 0.2913 0.1825 -0.9391
vn 0.6133 -0.7054 0.3553
vn 0.5500 0.7788 -0.3018
vn 0.1896 0.9519 -0.2406
vn -0.7157 -0.6823 -0.1490
vn -0.6439 -0.7364 -0.2077
vn 0.4738 0.8577 -0.1997
vn 0.7843 -0.6123 -0.0998
vn -0.9644 0.2447 0.1007
vn -0.8044 0.5736 0.1549
vn 0.9470 -0.2782 -0.1605
vn -0.8523 0.4989 0.1568
vn 0.9039 -0.3864 -0.1832
vn -0.0279 0.9809 -0.1927
vn 0.1822 -0.9680 -0.1723
vn 0.9316 -0.2838 -0.2269
vn -0.7991 0.5740 0.1788
vn 0.9008 -0.2873 -0.3255
vn 0.1261 -0.9400 -0.3170
vn -0.0627 0.9408 -0.3331
vn 0.8341 -0.3364 -0.4371
vn 0.8843 -0.2445 -0.3979
vn 0.7281 -0.5869 -0.3541
vn 0.4122 0.8399 -0.3530
vn -0.4615 -0.8134 -0.3542
vn -0.7045 -0.6267 -0.3330
vn -0.0090 0.9706 -0.2407
vn 0.6317 0.6914 -0.3506
vn 0.4879 -0.7109 -0.5064
vn -0.9638 0.2445 -0.1063
vn -0.7988 0.5820 -0.1524
vn -0.8538 0.4885 -0.1800
vn -0.7942 0.5678 -0.2163
vn -0.7750 0.5431 0.3233
vn -0.7633 0.4602 0.4535
vn -0.7350 0.5543 0.3906
vn -0.9003 0.2041 0.3845
vn 0.5819 -0.7384 -0.3409
vn 0.5617 0.7954 0.2278
vn 0.0570 0.9719 0.2285
vn -0.7682 -0.6246 0.1407
vn -0.6516 -0.7452 0.1418
vn 0.4626 0.8374 0.2912
vn 0.7847 -0.6126 0.0945
vn 0.9435 -0.2889 0.1626
vn 0.9116 -0.3786 0.1601
vn 0.0645 0.9589 0.2761
vn 0.1837 -0.9760 0.1172
vn 0.9403 -0.2839 0.1878
vn -0.8027 0.5681 -0.1818
vn 0.5202 0.0653 -0.8515
vn 0.9401 -0.2837 0.1890
vn -0.3288 0.4750 0.8162
vn 0.2002 -0.9281 0.3138
vn 0.0476 0.9410 0.3349
vn -0.4290 0.3068 0.8496
vn 0.8506 -0.3296 0.4098
vn 0.4863 -0.1481 -0.8611
vn -0.7873 0.4788 -0.3884
vn -0.6338 0.4436 0.6336
vn 0.9098 -0.2426 0.3369
vn 0.7233 -0.2292 -0.6514
vn -0.7563 0.5772 -0.3081
vn -0.8744 0.2101 -0.4373
vn 0.3340 -0.3911 -0.8576
vn 0.6995 -0.5645 0.4381
vn -0.4699 0.0030 0.8827
vn 0.0634 -0.1798 0.9817
vn -0.1450 -0.0766 -0.9865
vn -0.1862 0.1724 -0.9673
vn 0.2309 -0.0350 0.9724
vn -0.1368 0.1228 -0.9830
vn 0.1670 -0.0285 0.9855
vn 0.5858 0.7713 0.2489
vn -0.8177 -0.0735 0.5710
vn 0.4013 0.1048 0.9099
vn -0.2280 0.4096 -0.8833
vn -0.3288 0.4750 -0.8162
vn -0.6911 -0.6045 0.3962
vn -0.4290 0.3068 -0.8496
vn -0.6338 0.4436 -0.6336
vn -0.4699 0.0030 -0.8827
vn -0.1450 -0.0766 0.9865
vn -0.1862 0.1724 0.9673
vn -0.1368 0.1228 0.9830
vn 0.0463 0.9656 0.2559
vn -0.2280 0.4096 0.8833
vn 0.5202 0.0653 0.8515
vn 0.5993 0.7499 0.2803
vn 0.4863 -0.1481 0.8611
vn 0.7233 -0.2292 0.6514
vn 0.3340 -0.3911 0.8576
vn 0.0634 -0.1798 -0.9817
vn 0.2309 -0.0350 -0.9724
vn 0.1670 -0.0285 -0.9855
vn -0.0887 -0.9207 0.3800
vn 0.4013 0.1048 -0.9099
vn 0.0600 -0.9806 -0.1867
vn 0.6129 0.7610 -0.2125
vn 0.1164 0.9751 -0.1886
vn -0.7549 -0.6256 -0.1968
vn -0.9195 0.0162 0.3928
vn 0.3943 0.8847 -0.2486
vn 0.7883 -0.5902 -0.1741
vn -0.9520 0.2606 0.1606
vn -0.8042 0.5666 0.1793
vn 0.9294 -0.2910 -0.2269
vn -0.8525 0.4981 0.1587
vn 0.9113 -0.3794 -0.1599
vn 0.0228 0.9602 -0.2784
vn 0.1312 -0.9826 -0.1316
vn 0.9352 -0.2833 -0.2126
vn -0.7984 0.5725 0.1867
vn 0.9375 -0.2911 -0.1905
vn 0.1516 -0.9432 -0.2955
vn -0.0744 0.9457 -0.3165
vn 0.8536 -0.3370 -0.3973
vn 0.9137 -0.2439 -0.3252
vn 0.7112 -0.5681 -0.4140
vn 0.5873 0.7652 -0.2636
vn -0.8216 -0.1076 -0.5598
vn -0.6773 -0.6445 -0.3549
vn 0.1522 0.9283 -0.3392
vn 0.6169 0.6959 -0.3675
vn -0.1022 -0.9366 -0.3353
vn -0.9470 0.2634 -0.1840
vn -0.7981 0.5623 -0.2167
vn -0.8528 0.4982 -0.1567
vn -0.7958 0.5707 -0.2025
vn -0.7988 0.5740 0.1799
vn -0.7802 0.4809 0.4001
vn -0.7532 0.5752 0.3193
vn -0.8632 0.2022 0.4626
vn 0.0606 -0.9900 0.1272
vn 0.5105 0.8074 0.2958
vn 0.1139 0.9545 0.2758
vn -0.7630 -0.6323 0.1342
vn -0.9237 -0.0406 -0.3809
vn 0.5262 0.8141 0.2458
vn 0.7891 -0.5953 0.1517
vn 0.9373 -0.2934 0.1878
vn 0.9110 -0.3793 0.1620
vn 0.0232 0.9775 0.2095
vn 0.1904 -0.9740 0.1228
vn 0.9385 -0.2843 0.1960
vt 0.259920 0.180695
vt 0.250952 0.233210
vt 0.249514 0.180491
vt 0.223755 0.183009
vt 0.224359 0.236410
vt 0.213487 0.185701
vt 0.184698 0.195191
vt 0.198895 0.245836
vt 0.173964 0.199171
vt 0.149808 0.211654
vt 0.176320 0.261075
vt 0.140279 0.218971
vt 0.142880 0.044560
vt 0.133252 0.056446
vt 0.125597 0.049066
vt 0.211860 0.262320
vt 0.206139 0.272938
vt 0.199985 0.264821
vt 0.103662 0.115297
vt 0.111893 0.170231
vt 0.095137 0.116868
vt 0.149813 0.106192
vt 0.154016 0.153252
vt 0.140140 0.108285
vt 0.201115 0.093889
vt 0.203561 0.138927
vt 0.194296 0.095711
vt 0.242683 0.083315
vt 0.243516 0.131130
vt 0.233180 0.085873
vt 0.122008 0.165883
vt 0.163356 0.150368
vt 0.212531 0.137085
vt 0.254349 0.129854
vt 0.217247 0.036291
vt 0.228209 0.029371
vt 0.181416 0.046671
vt 0.189805 0.042607
vt 0.145559 0.055003
vt 0.095137 0.059324
vt 0.104613 0.057283
vt 0.123828 0.055801
vt 0.118503 0.112432
vt 0.114131 0.055393
vt 0.207921 0.037366
vt 0.213498 0.090691
vt 0.198541 0.038874
vt 0.238625 0.180837
vt 0.223283 0.134936
vt 0.234187 0.132849
vt 0.163734 0.203566
vt 0.133619 0.161140
vt 0.144841 0.156736
vt 0.226068 0.087603
vt 0.132671 0.109713
vt 0.208701 0.257586
vt 0.197522 0.255930
vt 0.208605 0.252093
vt 0.136467 0.022112
vt 0.121005 0.039349
vt 0.119261 0.028776
vt 0.191834 0.252090
vt 0.156726 0.207353
vt 0.241933 0.235560
vt 0.231131 0.181720
vt 0.121106 0.018401
vt 0.132396 0.009966
vt 0.197921 0.260603
vt 0.184758 0.256845
vt 0.208274 0.244247
vt 0.142251 0.033244
vt 0.233674 0.236559
vt 0.168473 0.039864
vt 0.153265 0.030336
vt 0.163689 0.028650
vt 0.216561 0.240944
vt 0.215091 0.249656
vt 0.212535 0.242820
vt 0.226283 0.256603
vt 0.216991 0.254814
vt 0.225628 0.251255
vt 0.164957 0.015151
vt 0.147563 0.005237
vt 0.162467 0.002379
vt 0.150884 0.019670
vt 0.222261 0.247247
vt 0.169231 0.050177
vt 0.167893 0.102061
vt 0.157641 0.051963
vt 0.255551 0.018813
vt 0.262171 0.078231
vt 0.240729 0.022537
vt 0.281606 0.181776
vt 0.270466 0.128177
vt 0.289232 0.126623
vt 0.203992 0.188680
vt 0.179328 0.145627
vt 0.193627 0.141621
vt 0.283077 0.072543
vt 0.185416 0.097862
vt 0.227209 0.266379
vt 0.218992 0.260174
vt 0.155401 0.040366
vt 0.194051 0.191791
vt 0.269236 0.239170
vt 0.270948 0.180951
vt 0.185809 0.036656
vt 0.236490 0.261809
vt 0.235804 0.251622
vt 0.231895 0.243264
vt 0.186197 0.025451
vt 0.183454 0.014632
vt 0.177236 0.005537
vt 0.234606 0.247085
vt 0.259350 0.237549
vt 0.278981 0.236585
vt 0.294273 0.183002
vt 0.300627 0.125962
vt 0.294667 0.069200
vt 0.268429 0.016393
vt 0.216701 0.270103
vt 0.188806 0.255230
vt 0.237913 0.236949
vt 0.222161 0.268697
vt 0.264066 0.239541
s 0
usemtl chara.009
f 70/1/1 4/2/1 14/3/1
f 44/4/2 8/5/2 15/6/2
f 86/7/3 6/8/3 16/9/3
f 34/10/4 2/11/4 13/12/4
f 93/13/5 5/14/5 42/15/5
f 91/16/6 2/17/6 32/18/6
f 35/19/7 9/20/7 20/21/7
f 87/22/8 12/23/8 19/24/8
f 45/25/9 11/26/9 18/27/9
f 71/28/10 10/29/10 17/30/10
f 33/31/11 13/12/11 9/20/11
f 85/32/12 16/9/12 12/23/12
f 43/33/13 15/6/13 11/26/13
f 69/34/14 14/3/14 10/29/14
f 71/28/15 3/35/15 72/36/15
f 45/25/16 7/37/16 46/38/16
f 87/22/17 5/14/17 95/39/17
f 35/19/18 1/40/18 37/41/18
f 42/42/19 30/43/19 23/44/19
f 31/45/20 29/46/20 21/47/20
f 39/48/21 26/49/21 38/50/21
f 49/51/22 25/52/22 48/53/22
f 38/50/23 29/46/23 40/54/23
f 48/53/24 30/43/24 50/55/24
f 88/56/25 47/57/25 92/58/25
f 90/59/26 23/60/26 37/61/26
f 47/62/27 27/63/27 49/51/27
f 36/64/28 28/65/28 39/48/28
f 4/2/29 39/48/29 14/3/29
f 90/59/30 1/66/30 83/67/30
f 10/29/31 40/54/31 17/30/31
f 14/3/32 38/50/32 10/29/32
f 3/35/33 40/54/33 31/45/33
f 30/43/34 37/41/34 23/44/34
f 25/52/35 34/10/35 33/31/35
f 30/43/36 33/31/36 35/19/36
f 88/56/37 32/18/37 24/68/37
f 27/63/38 32/69/38 34/10/38
f 6/8/39 49/51/39 16/9/39
f 92/58/40 6/8/40 84/70/40
f 12/23/41 50/55/41 19/24/41
f 16/9/42 48/53/42 12/23/42
f 5/14/43 50/55/43 42/42/43
f 29/46/44 46/38/44 21/47/44
f 26/49/45 44/4/45 43/33/45
f 29/46/46 43/33/46 45/25/46
f 93/13/47 23/60/47 89/71/47
f 28/65/48 41/72/48 44/4/48
f 82/73/49 62/74/49 78/75/49
f 73/76/50 65/77/50 54/78/50
f 80/79/51 61/80/51 77/81/51
f 79/82/52 51/83/52 72/84/52
f 79/82/53 62/74/53 63/85/53
f 81/86/54 61/80/54 65/77/54
f 68/87/55 60/88/55 53/89/55
f 83/90/56 59/91/56 51/92/56
f 97/93/57 56/94/57 96/95/57
f 75/96/58 55/97/58 74/98/58
f 96/95/59 59/91/59 98/99/59
f 74/98/60 60/88/60 76/100/60
f 67/101/61 64/102/61 80/79/61
f 82/73/62 53/89/62 66/103/62
f 73/76/63 57/104/63 75/96/63
f 94/105/64 58/106/64 97/93/64
f 8/5/65 75/96/65 15/6/65
f 7/37/66 82/73/66 46/107/66
f 4/108/67 80/79/67 36/109/67
f 11/26/68 76/100/68 18/27/68
f 15/6/69 74/98/69 11/26/69
f 7/37/70 76/100/70 68/87/70
f 41/110/71 77/81/71 81/86/71
f 21/111/72 79/82/72 31/112/72
f 3/113/73 79/82/73 72/84/73
f 36/109/74 77/81/74 22/114/74
f 8/5/75 81/86/75 73/76/75
f 21/111/76 82/73/76 78/75/76
f 59/91/77 72/36/77 51/92/77
f 56/94/78 70/1/78 69/34/78
f 59/91/79 69/34/79 71/28/79
f 58/106/80 67/115/80 70/1/80
f 2/116/81 97/93/81 13/117/81
f 9/118/82 98/99/82 20/119/82
f 13/117/83 96/95/83 9/118/83
f 1/120/84 98/99/84 83/90/84
f 62/74/85 93/13/85 89/71/85
f 65/77/86 84/70/86 54/78/86
f 61/80/87 91/16/87 88/56/87
f 51/83/88 90/59/88 83/67/88
f 62/74/89 90/59/89 63/85/89
f 61/80/90 92/58/90 65/77/90
f 60/88/91 95/39/91 53/89/91
f 55/97/92 86/7/92 85/32/92
f 60/88/93 85/32/93 87/22/93
f 64/102/94 94/121/94 91/16/94
f 53/89/95 93/13/95 66/103/95
f 57/104/96 84/70/96 86/7/96
f 70/1/97 67/115/97 4/2/97
f 44/4/98 41/72/98 8/5/98
f 86/7/99 84/70/99 6/8/99
f 34/10/100 32/69/100 2/11/100
f 93/13/101 95/39/101 5/14/101
f 91/16/102 94/121/102 2/17/102
f 35/19/103 33/31/103 9/20/103
f 87/22/104 85/32/104 12/23/104
f 45/25/105 43/33/105 11/26/105
f 71/28/106 69/34/106 10/29/106
f 33/31/107 34/10/107 13/12/107
f 85/32/108 86/7/108 16/9/108
f 43/33/109 44/4/109 15/6/109
f 69/34/110 70/1/110 14/3/110
f 71/28/111 17/30/111 3/35/111
f 45/25/112 18/27/112 7/37/112
f 87/22/113 19/24/113 5/14/113
f 35/19/114 20/21/114 1/40/114
f 42/42/115 50/55/115 30/43/115
f 31/45/116 40/54/116 29/46/116
f 39/48/117 28/65/117 26/49/117
f 49/51/118 27/63/118 25/52/118
f 38/50/119 26/49/119 29/46/119
f 48/53/120 25/52/120 30/43/120
f 88/56/121 24/68/121 47/57/121
f 90/59/122 89/71/122 23/60/122
f 47/62/123 24/122/123 27/63/123
f 36/64/124 22/123/124 28/65/124
f 4/2/125 36/64/125 39/48/125
f 90/59/126 37/61/126 1/66/126
f 10/29/127 38/50/127 40/54/127
f 14/3/128 39/48/128 38/50/128
f 3/35/129 17/30/129 40/54/129
f 30/43/130 35/19/130 37/41/130
f 25/52/131 27/63/131 34/10/131
f 30/43/132 25/52/132 33/31/132
f 88/56/133 91/16/133 32/18/133
f 27/63/134 24/122/134 32/69/134
f 6/8/135 47/62/135 49/51/135
f 92/58/136 47/57/136 6/8/136
f 12/23/137 48/53/137 50/55/137
f 16/9/138 49/51/138 48/53/138
f 5/14/139 19/24/139 50/55/139
f 29/46/140 45/25/140 46/38/140
f 26/49/141 28/65/141 44/4/141
f 29/46/142 26/49/142 43/33/142
f 93/13/143 42/15/143 23/60/143
f 28/65/144 22/123/144 41/72/144
f 82/73/145 66/103/145 62/74/145
f 73/76/146 81/86/146 65/77/146
f 80/79/147 64/102/147 61/80/147
f 79/82/148 63/85/148 51/83/148
f 79/82/149 78/75/149 62/74/149
f 81/86/150 77/81/150 61/80/150
f 68/87/151 76/100/151 60/88/151
f 83/90/152 98/99/152 59/91/152
f 97/93/153 58/106/153 56/94/153
f 75/96/154 57/104/154 55/97/154
f 96/95/155 56/94/155 59/91/155
f 74/98/156 55/97/156 60/88/156
f 67/101/157 52/124/157 64/102/157
f 82/73/158 68/87/158 53/89/158
f 73/76/159 54/78/159 57/104/159
f 94/105/160 52/125/160 58/106/160
f 8/5/161 73/76/161 75/96/161
f 7/37/162 68/87/162 82/73/162
f 4/108/163 67/101/163 80/79/163
f 11/26/164 74/98/164 76/100/164
f 15/6/165 75/96/165 74/98/165
f 7/37/166 18/27/166 76/100/166
f 41/110/167 22/114/167 77/81/167
f 21/111/168 78/75/168 79/82/168
f 3/113/169 31/112/169 79/82/169
f 36/109/170 80/79/170 77/81/170
f 8/5/171 41/110/171 81/86/171
f 21/111/172 46/107/172 82/73/172
f 59/91/173 71/28/173 72/36/173
f 56/94/174 58/106/174 70/1/174
f 59/91/175 56/94/175 69/34/175
f 58/106/176 52/125/176 67/115/176
f 2/116/177 94/105/177 97/93/177
f 9/118/178 96/95/178 98/99/178
f 13/117/179 97/93/179 96/95/179
f 1/120/180 20/119/180 98/99/180
f 62/74/181 66/103/181 93/13/181
f 65/77/182 92/58/182 84/70/182
f 61/80/183 64/102/183 91/16/183
f 51/83/184 63/85/184 90/59/184
f 62/74/185 89/71/185 90/59/185
f 61/80/186 88/56/186 92/58/186
f 60/88/187 87/22/187 95/39/187
f 55/97/188 57/104/188 86/7/188
f 60/88/189 55/97/189 85/32/189
f 64/102/190 52/124/190 94/121/190
f 53/89/191 95/39/191 93/13/191
f 57/104/192 54/78/192 84/70/192
